<svg xmlns="http://www.w3.org/2000/svg" id="tag-cocan23-master" width="548" height="267.736" viewBox="0 0 548 267.736"><path id="Path_22" data-name="Path 22" d="M275.549,139.585a1.565,1.565,0,0,1-.176.873c-3.678,8.032-9.458,20.252-15.412,28.107-1.928,2.793-5.78,7.332-9.458,7.507h-2.453c-4.2,0-8.232-.524-9.983-4.189a18.739,18.739,0,0,1-1.226-7.508c0-21.3,18.039-65.99,20.842-72.449.877-1.4,2.628-2.094,4.73-2.094,4.554,0,10.334,2.967,10.334,5.411l-.176.523c-2.1,5.586-20.492,53.6-22.418,71.577l-.175,3.492c0,1.047,0,1.746.35,1.746h.351c2.276,0,5.6-4.539,6.655-5.936,5.43-7.507,11.384-20.251,14.887-27.584a1.463,1.463,0,0,1,1.576-1.046,1.909,1.909,0,0,1,.876.174,1.779,1.779,0,0,1,.876,1.4m81.964-5.411h-.35c-1.927,0-4.378,0-7.006-.175,7.882-23.742,16.639-48.008,18.39-52.373l.176-.7c0-2.968-5.955-5.411-10.333-5.411-2.277,0-4.029.7-4.554,2.095C351.383,83.546,342.1,109.557,334.569,134H311.976c1.751-9.078,15.938-45.041,17.339-50.8l.175-1.223c0-5.237-10.683-6.634-17.165-6.634L309,75.516c-14.888,1.222-32.577,28.106-36.081,41.2a14.888,14.888,0,0,0-.7,4.365c0,5.063,3.328,6.983,7.707,6.983a24.8,24.8,0,0,0,7.705-1.4,1.819,1.819,0,0,0,1.227-1.746,1.655,1.655,0,0,0-1.4-1.571c-.35-.174-.526-.524-.526-1.223,0-6.634,18.39-39.629,26.448-39.629l1.051.175c-2.627,7.331-11.56,29.677-18.215,51.325h-7.532c-2.626,0-5.78,4.888-5.78,8.031,0,1.571.7,2.793,2.628,2.793l7.355-.174c-4.379,14.664-8.057,28.63-8.057,34.042l.176,1.4c.875,3.84,5.6,4.539,9.633,4.539h1.752a1.752,1.752,0,0,0,1.751-1.746c0-5.586,5.955-24.79,10.159-38.232l22.944.174c-4.554,15.188-8.057,28.631-8.057,33.868l.175,1.4c.876,3.84,5.6,4.539,9.808,4.539h1.752a1.724,1.724,0,0,0,1.576-1.746c0-5.238,5.43-23.394,10.159-37.884,2.451,0,4.554,0,6.479.175h.176c3.853,0,6.655-4.714,6.655-8.031,0-1.746-.7-2.968-2.452-2.968m182.14-26.187c1.4,0,2.627-.349,2.977-1.223,1.226-2.619,3.678-8.9,4.554-10.474a1.658,1.658,0,0,0,.35-1.222c0-2.619-5.254-5.412-9.283-5.412-1.926,0-3.5.523-4.028,2.095-1.051,2.27-3.153,9.078-3.153,11.871,0,2.27,5.08,4.365,8.583,4.365m152.716,0c1.4,0,2.627-.349,2.977-1.223,1.227-2.619,3.678-8.9,4.555-10.474a1.66,1.66,0,0,0,.349-1.222c0-2.619-5.254-5.412-9.283-5.412-1.927,0-3.5.523-4.028,2.095-1.051,2.27-3.152,9.078-3.152,11.871,0,2.27,5.08,4.365,8.582,4.365m92.472,31.773a1.884,1.884,0,0,1-.176.872c-11.734,24.441-21.542,32.122-28.548,34.567a20.728,20.728,0,0,1-6.131.872h-1.927c-14.886-.524-20.316-9.252-20.316-20.251,0-.219.014-.444.019-.664a114.935,114.935,0,0,1-8.95,14.456c-2.1,2.443-5.43,6.284-8.758,6.458h-2.627c-4.2,0-8.232-.524-9.807-4.189a19.734,19.734,0,0,1-1.4-7.855,61.481,61.481,0,0,1,.794-9.1c-5.442,10.54-12.026,20.906-17.43,21.141h-2.276c-4.379,0-8.932-.524-10.859-4.189-1.052-1.746-1.577-4.539-1.577-7.681a52.924,52.924,0,0,1,.8-8.2,98.759,98.759,0,0,1-7.8,12.559c-1.927,2.793-5.781,7.332-9.458,7.507h-2.453c-4.2,0-8.232-.524-9.982-4.189a18.719,18.719,0,0,1-1.227-7.508,62.48,62.48,0,0,1,.884-9.61c-5.577,10.6-12.32,21.072-17.871,21.307h-2.1c-4.379,0-8.933-.524-10.86-4.189-1.051-1.746-1.4-4.365-1.4-7.332,0-1.747.174-3.492.349-5.587-4.028,6.983-9.633,13.791-16.463,13.791h-.351c-8.407-.174-11.91-7.158-11.91-16.235,0-.456.014-.919.031-1.385a115.043,115.043,0,0,1-8.962,14.478c-2.1,2.443-5.429,6.284-8.757,6.458h-2.627c-4.2,0-8.232-.524-9.808-4.189a19.746,19.746,0,0,1-1.4-7.855,61.348,61.348,0,0,1,.794-9.1c-5.443,10.54-12.026,20.906-17.43,21.141h-2.276c-4.379,0-8.934-.524-10.859-4.189-1.052-1.746-1.576-4.539-1.576-7.681a70.2,70.2,0,0,1,1.576-12.571q.326-1.52.7-3.079a24.139,24.139,0,0,1-14.538,5.7c-5.6,12.047-13.137,18.157-22.418,18.157q-7.357,0-7.357-7.333c0-3.492,1.577-6.808,4.73-9.776a20.55,20.55,0,0,1,12.435-3.667,55.257,55.257,0,0,0,4.029-19.9c0-5.063-1.051-7.507-2.978-7.507s-4.2,2.094-7.005,6.11a77.432,77.432,0,0,0-8.933,16.409c-9.632,31.424-14.536,51.151-14.536,59.182,0,1.4-.526,2.095-1.4,2.095l-3.5.174c-5.779,0-8.582-2.269-8.582-6.808,0-5.936,2.1-16.759,6.13-32.3q1.778-7.137,3.449-13.409c-.729,1.227-1.463,2.448-2.219,3.632a85.711,85.711,0,0,1-8.232,10.649c-5.254,5.936-11.384,6.286-16.639,6.286h-1.576c-10.334,0-15.238-6.809-15.238-14.316a19.712,19.712,0,0,1,4.028-11.7,4.4,4.4,0,0,1,3.678-1.745c4.028,0,8.933,3.665,8.933,5.934a1.578,1.578,0,0,1-.526,1.222c-2.627,2.271-5.079,8.556-5.079,12.4,0,1.222.175,2.095.876,2.619a2.5,2.5,0,0,0,1.05.349,4.447,4.447,0,0,0,3.153-2.1c2.452-3.142,3.153-7.507,3.153-12.394,0-8.38-2.1-18.156-2.1-25.838a25.849,25.849,0,0,1,.174-3.665c-5.079,9.252-12.61,24.091-24.695,24.091h-1.051c-4.028,11-12.435,25.139-24.521,25.139-11.034,0-15.588-8.9-15.588-20.077,0-18.155,12.085-41.723,28.373-41.723a19.9,19.9,0,0,1,4.379.524c8.232,2.269,10.683,9.95,10.683,17.981A54.971,54.971,0,0,1,402.7,147.79c9.983,0,17.864-15.188,21.718-22.7,2.8-5.586,5.779-10.649,7.355-10.649h12.961a1.753,1.753,0,0,1,1.752,1.746,1.28,1.28,0,0,1-.351,1.047,24.523,24.523,0,0,0-4.2,14.141c0,7.332,2.452,14.664,2.452,22.171a26.587,26.587,0,0,1-.525,5.237,29.56,29.56,0,0,1-3.5,9.428,89.852,89.852,0,0,0,8.757-11.347,150.031,150.031,0,0,0,9.1-16.355q4.81-16.155,8.583-23.973a4.895,4.895,0,0,1,4.379-2.095A16.227,16.227,0,0,1,478,116.018c2.277,1.047,3.328,2.269,3.328,3.491l-.7,2.1c3.679-4.714,7.707-7.158,12.086-7.158,5.779,0,9.458,3.143,11.209,9.427a25.889,25.889,0,0,1,1.226,8.205,57.017,57.017,0,0,1-3.677,18.5c6.744-.937,11.658-4.124,15-9.669,2.9-9.978,6.534-19.626,8.465-24.373.7-1.4,2.452-2.095,4.379-2.095,4.2,0,9.632,2.619,9.632,5.237l-.175.7c-1.4,3.841-13.662,38.58-13.662,49.231,0,1.919.351,2.968,1.4,2.968,5.52-.167,15.671-20.555,20.844-31.968,2.662-10.155,6.333-21.007,9.8-30.356-3.5-.174-6.83-.174-9.633-.174a2.021,2.021,0,0,1-1.75-1.746,1.751,1.751,0,0,1,1.75-1.745l10.859.174c2.277-5.935,4.378-11,6.13-14.839.525-1.571,2.277-2.094,4.378-2.094,4.555,0,10.859,2.793,10.859,5.411l-.175.523q-2.363,5.239-4.729,11.522l8.758.174a1.752,1.752,0,0,1,1.751,1.747,1.8,1.8,0,0,1-1.926,1.745c-2.978-.174-6.306-.174-9.983-.174-5.43,16.061-11.385,34.042-14.887,48.882a62.431,62.431,0,0,0-1.927,11.347c0,1.222.176,1.571.7,1.571,1.926,0,5.255-4.191,6.48-5.761,4.555-6.151,9.719-16.222,13.335-23.743,4.287-14.351,14.7-28.456,27.822-28.456h.176c4.554,0,8.232,1.571,10.333,4.888l1.227-3.142c.875-1.4,2.451-1.92,4.554-1.92,4.028,0,9.458,2.443,9.458,5.237l-.176.7c-2.276,5.586-13.66,35.613-14.011,48.183,0,2.444.176,4.016,1.051,4.016,5.48-.165,15.678-20.253,21.052-31.712,5.467-20.931,14.981-44.4,16.953-48.943.875-1.4,2.626-2.094,4.728-2.094,4.554,0,10.334,2.967,10.334,5.411l-.176.523c-2.1,5.586-20.491,53.6-22.418,71.577l-.175,3.492c0,1.047,0,1.746.35,1.746h.35c2.278,0,5.6-4.539,6.656-5.936,4.937-6.826,10.3-17.968,13.869-25.449,2.916-10.078,6.6-19.863,8.547-24.655.7-1.4,2.452-2.095,4.379-2.095,4.2,0,9.633,2.619,9.633,5.237l-.176.7c-1.4,3.841-13.661,38.58-13.661,49.231,0,1.919.35,2.968,1.4,2.968,5.52-.167,15.671-20.555,20.844-31.968,2.662-10.155,6.332-21.007,9.8-30.356-3.5-.174-6.831-.174-9.633-.174a2.021,2.021,0,0,1-1.751-1.746,1.751,1.751,0,0,1,1.751-1.745l10.86.174c2.276-5.935,4.378-11,6.129-14.839.526-1.571,2.277-2.094,4.379-2.094,4.554,0,10.859,2.793,10.859,5.411l-.175.523q-2.363,5.239-4.729,11.522l8.758.174a1.752,1.752,0,0,1,1.751,1.747,1.8,1.8,0,0,1-1.925,1.745c-2.977-.174-6.305-.174-9.983-.174-5.43,16.061-11.385,34.042-14.887,48.882a62.479,62.479,0,0,0-1.926,11.347c0,1.222.175,1.571.7,1.571,1.927,0,5.255-4.191,6.481-5.761,4.452-6.013,9.49-15.778,13.092-23.239.42-1.453.9-2.9,1.443-4.345,4.379-11.348,13.661-24.79,26.622-24.79h.526c6.655.174,12.084,3.491,12.084,10.125v.349c-.349,12.4-12.96,27.758-22.418,27.758a7.646,7.646,0,0,1-5.079-1.92,28.954,28.954,0,0,0-.7,6.808c0,6.635,2.1,13.268,7.706,14.49a8.557,8.557,0,0,0,2.1.174,13.109,13.109,0,0,0,3.5-.524c6.305-2.269,15.062-9.6,26.1-32.646a1.641,1.641,0,0,1,1.4-1.046,2.5,2.5,0,0,1,1.052.349,1.556,1.556,0,0,1,.876,1.4M744.208,145.7a4.577,4.577,0,0,0,2.627.7c7.532,0,17.34-15.363,17.34-20.949a2.173,2.173,0,0,0-.7-1.921,2.617,2.617,0,0,0-1.577-.348c-4.028,0-9.632,7.331-11.383,9.776a57.485,57.485,0,0,0-6.306,12.744m-354.3-5.586c0-5.063,3.152-9.951,6.48-11-.525-2.095-1.4-3.841-3.678-3.841h-1.051c-8.407,1.222-17.515,24.964-17.515,37.708,0,4.365,1.052,7.507,3.679,7.856h.525c6.831,0,13.662-17.109,15.413-22.521a9.957,9.957,0,0,1-3.853-8.205m95.624,15.013c-5.78.35-9.458,2.444-11.034,6.459a4.088,4.088,0,0,0-.35,1.921c0,1.571.526,2.443,1.926,2.443,1.051,0,2.276-.873,3.678-2.269a32.511,32.511,0,0,0,3.677-4.889,10.217,10.217,0,0,0,2.1-3.666m125.047-25.837c0-2.444-.7-4.365-2.627-4.888l-1.051-.174c-7.881,0-17.864,23.742-17.864,34.042,0,2.968.875,4.713,2.626,4.713,5.255-.175,14.712-18.506,16.464-22.87.877-2.27,2.453-6.983,2.453-10.824m145.71-23.917.351-.174c1.752-.7,14.887-6.11,17.164-7.332a2.286,2.286,0,0,0,1.051-2.1c0-2.269-1.927-5.412-4.029-5.412l-1.226.35c-2.627,1.4-14.712,9.951-15.062,10.3a1.578,1.578,0,0,0-.526,1.222c0,1.4,1.051,3.142,2.277,3.142M629.658,71.6c0-7.491,5.466-18.161,12.982-18.161h.076a5.048,5.048,0,0,1,4.328,1.816c1.823-5.3,3.644-9.837,4.4-11.654.3-.605,1.062-.832,2.049-.832,2.049,0,4.707,1.059,4.707,2.119v.227c-.835,2.5-9.187,23.383-10.022,31.178l-.075,1.664c0,.378.075.605.152.605.607,0,1.518-.833,1.67-.984,2.195-2.251,5.044-7.669,6.922-11.615q.262-.892.594-1.779c1.9-4.918,5.922-10.745,11.54-10.745h.228c2.885.075,5.238,1.589,5.238,4.465v.151c-.152,5.373-5.693,11.956-9.794,11.956a3.185,3.185,0,0,1-2.126-.757,12.144,12.144,0,0,0-.3,2.951c0,2.8.911,5.751,3.34,6.28l.834.076c2.505,0,4.632-2.195,6.226-3.783a.927.927,0,0,1,.683-.3.689.689,0,0,1,.531.227l.152.454a.59.59,0,0,1-.227.529,10.146,10.146,0,0,1-8.5,4.54h-.455C658.357,80,656,76.137,656,71.369c0-.126.018-.26.021-.388a34.2,34.2,0,0,1-5.108,7.653,4.1,4.1,0,0,1-2.581,1.437h-1.063c-1.823,0-3.569-.226-4.328-1.817a7.727,7.727,0,0,1-.531-3.178,21.97,21.97,0,0,1,.227-3.027c-1.9,3.254-4.555,6.584-7.744,6.584h-.076c-3.643-.076-5.162-3.1-5.162-7.038m33.481-4.616a1.983,1.983,0,0,0,1.139.3c3.265,0,7.517-6.659,7.517-9.081a.939.939,0,0,0-.3-.832,1.773,1.773,0,0,0-.606-.152c-1.747,0-4.252,3.254-5.01,4.314a26.162,26.162,0,0,0-2.734,5.449m-27.482,5.373c0,1.211.3,2.044,1.138,2.044,2.354-.076,6.606-7.871,7.364-9.838a15.11,15.11,0,0,0,.988-4.691c0-1.287-.381-2.271-1.518-2.271h-.076c-3.568,0-7.9,10.292-7.9,14.757" transform="translate(-236.842 59.543)" fill="#ef8f00"></path><path id="Path_24" data-name="Path 24" d="M566.052,82.119c0-6.36-5.2-10.131-11.109-10.131a16.015,16.015,0,0,0-8.749,2.827c-6.382,4.476-13.24,12.251-18.2,18.612-4.018,5.419-8.04,11.073-11.585,16.492.709-2.12,8.276-25.208,10.167-29.685l.236-1.178c0-3.535-7.8-6.832-13.476-6.832-2.836,0-4.963.707-5.672,2.591-2.518,6.626-6.671,19.239-10.492,32.358-7.222,15.422-21.092,42.808-28.529,43.033-1.181,0-1.418-2.12-1.418-5.417.473-16.965,15.84-57.487,18.916-65.026l.237-.943c0-3.77-7.331-7.067-12.767-7.067-2.837,0-4.968.707-6.149,2.591L465.8,78.585c-2.836-4.477-7.8-6.6-13.949-6.6h-.236c-16.144,0-29.248,15.807-35.827,33.268-13.6,20.032-41.241,50.134-67.5,50.134-13.476-.236-18.676-7.775-18.676-21.676,0-34.632,28.844-94.945,59.106-101.306a34.565,34.565,0,0,1,5.2-.707c4.964,0,8.273,2.356,8.273,8.01,0,17.2-25.768,55.13-38.772,56.307a2.229,2.229,0,0,0-2.363,2.356c.709,5.184,10.636,9.9,18.439,9.9a13.776,13.776,0,0,0,7.8-2.121c13-8.718,27.9-37.695,27.9-57.957,0-16.962-9.927-28.978-31.208-28.978-44.92.47-78.491,62.668-78.491,102.957,0,30.156,19.386,44.292,41.138,44.292h.473c28.123,0,50.21-18.925,64.233-41.781-.1,1.306-.155,2.594-.155,3.849,0,12.252,4.727,21.676,16.076,21.911h.473c9.218,0,16.785-9.187,22.222-18.611-.236,2.827-.473,5.184-.473,7.54,0,4,.473,7.539,1.891,9.895,2.6,4.948,8.749,5.654,14.658,5.654h2.837c6.838-.29,15.018-12.091,22.118-25.023-1.984,8.212-3.2,15.125-3.2,18.662,0,5.419,7.8,6.832,13.713,6.832h1.418c1.418-.236,2.6-.707,2.6-2.356.24-5.419,2.367-14.842,5.44-25.445a276.109,276.109,0,0,1,20.8-31.334c2.6-3.3,8.513-10.366,10.64-12.25a4.235,4.235,0,0,1,2.364-1.415c.472,0,.945.471.945,1.65,0,2.592-13.24,39.816-14.185,55.6v1.649c0,12.488,6.621,13.9,15.839,13.9h4.495c.946,0,1.655-1.178,1.655-2.356a2.365,2.365,0,0,0-1.419-2.357c-.709-.471-.949-2.12-.949-4.476,0-13.665,11.349-45,14.658-61.255ZM455.875,106.386c-2.367,5.889-15.131,30.627-22.225,30.863-2.364,0-3.546-2.357-3.546-6.361,0-13.9,13.477-45.941,24.116-45.941l1.419.235c2.6.707,3.545,3.3,3.545,6.6,0,5.182-2.127,11.543-3.309,14.607M300.516,59.522l-.228.075a8.57,8.57,0,0,1-2.43.379c-5.012,0-10.934-4.011-15.794-6.508,4.936-10.216,7.973-23.761,12.454-34.81a3.7,3.7,0,0,0,.379-1.438c0-2.8-4.557-3.556-7.518-3.556l-1.366.075c-2.81.227-6,2.648-8.808,5.9-3.266,3.708-6,8.551-6.912,11.956a8.061,8.061,0,0,0-.228,1.892,2.866,2.866,0,0,0,1.292,2.648,4.437,4.437,0,0,0,1.975.454,11.924,11.924,0,0,0,3.418-.681.769.769,0,0,0,.53-.682.737.737,0,0,0-.607-.757q-.228-.113-.228-.681l.076-.984c.684-2.876,7.822-16.195,11.162-16.195l.38.076c-4.556,11.276-7.138,23.761-11.542,34.507a8.54,8.54,0,0,0-2.658-.453,6.888,6.888,0,0,0-3.265.908,6.378,6.378,0,0,0-3.19,5.221c0,2.194,1.595,4.238,5.24,4.238l.988-.076a8.186,8.186,0,0,0,5.619-3.1c4.86,2.875,10.176,7.416,15.491,7.416h.608c2.278-.075,4.025-2.194,5.771-4.616l.153-.378a.83.83,0,0,0-.76-.833m-28.856-2.27h-.076c-.836-.076-1.064-.378-1.064-.833a1.048,1.048,0,0,1,.532-.908,2.5,2.5,0,0,1,1.291-.3,7.071,7.071,0,0,1,1.823.3c-.608.757-1.443,1.74-2.506,1.74m38.046-.378v-.3a1.129,1.129,0,0,0-.228-.757c-.227-.151-.227-.605-.227-1.21a21.86,21.86,0,0,1,.227-2.8c1.064-6.205,4.935-16.346,5.771-18.465l.076-.378c0-1.135-2.354-2.195-4.1-2.195a2.129,2.129,0,0,0-1.9.757l-.531,1.362a5.256,5.256,0,0,0-4.48-2.119h-.076c-7.518,0-12.985,10.746-12.985,18.237,0,3.935,1.519,6.962,5.163,7.038h.076c3.037,0,5.392-2.951,7.214-5.978-.076.908-.152,1.664-.152,2.421a6.416,6.416,0,0,0,.608,3.179c.91,1.664,3.036,1.817,5.088,1.817.227,0,.455-.3.455-.605m-4.1-15.06c-.759,1.968-4.86,9.838-7.214,9.913-.759,0-1.064-.757-1.064-1.968,0-4.465,4.33-14.832,7.746-14.832l.456.075c.836.3,1.14,1.135,1.14,2.195a14.282,14.282,0,0,1-1.064,4.616" transform="translate(-174.545 -13.664)" fill="#0e652f"></path></svg>